<?xml version="1.0"?>
<svg xmlns="http://www.w3.org/2000/svg" height="512px" viewBox="0 1 511 511.999" width="512px" class=""><g><path d="m256.496094 206.730469c-32.226563 0-58.445313 26.222656-58.445313 58.449219v40.085937h116.898438v-40.085937c-.003907-32.226563-26.222657-58.449219-58.453125-58.449219zm0 0" data-original="#000000" class="active-path" data-old_color="#000000" fill="#2A58AD"/><path d="m256.496094 176.730469c22.738281 0 41.234375-18.496094 41.234375-41.230469s-18.496094-41.234375-41.234375-41.234375c-22.734375 0-41.230469 18.5-41.230469 41.234375s18.496094 41.230469 41.230469 41.230469zm0 0" data-original="#000000" class="active-path" data-old_color="#000000" fill="#2A58AD"/><path d="m457.332031 0h-401.667969c-30.417968 0-55.164062 24.746094-55.164062 55.164062v294.238282c0 30.421875 24.746094 55.167968 55.164062 55.167968h127.296876l42.160156 84.316407c7.339844 14.6875 18.777344 23.113281 31.375 23.113281 12.601562 0 24.035156-8.425781 31.378906-23.113281l42.160156-84.316407h127.296875c30.417969 0 55.164063-24.746093 55.164063-55.167968v-294.238282c0-30.417968-24.746094-55.164062-55.164063-55.164062zm-112.386719 320.265625c0 8.285156-6.714843 15-15 15h-146.894531c-8.285156 0-15-6.714844-15-15v-55.082031c0-31.890625 16.960938-59.886719 42.335938-75.453125-15.355469-13.074219-25.121094-32.527344-25.121094-54.230469 0-39.277344 31.953125-71.234375 71.230469-71.234375 39.28125 0 71.234375 31.957031 71.234375 71.234375 0 21.703125-9.765625 41.15625-25.125 54.230469 25.375 15.566406 42.339843 43.566406 42.339843 75.453125zm0 0" data-original="#000000" class="active-path" data-old_color="#000000" fill="#2A58AD"/></g> </svg>
